<svg xmlns="http://www.w3.org/2000/svg" xmlns:xlink="http://www.w3.org/1999/xlink" width="500" zoomAndPan="magnify" viewBox="0 0 375 374.999991" height="500" preserveAspectRatio="xMidYMid meet" version="1.0"><defs><clipPath id="8a0a224865"><path d="M 116 26 L 366.96875 26 L 366.96875 349 L 116 349 Z M 116 26 " clip-rule="nonzero"/></clipPath></defs><path fill="#4c5454" d="M 27.398438 169.609375 L 242.085938 169.609375 L 242.085938 205.390625 L 27.398438 205.390625 Z M 27.398438 169.609375 " fill-opacity="1" fill-rule="evenodd"/><path fill="#4c5454" d="M 77.363281 112.230469 L 14.746094 174.847656 C 7.757812 181.835938 7.757812 193.164062 14.746094 200.148438 L 77.363281 262.765625 L 102.664062 237.464844 L 52.695312 187.5 L 102.664062 137.53125 Z M 77.363281 112.230469 " fill-opacity="1" fill-rule="evenodd"/><g clip-path="url(#8a0a224865)"><path fill="#4c5454" d="M 116.851562 44.375 C 116.851562 34.492188 124.859375 26.484375 134.742188 26.484375 L 349.429688 26.484375 C 359.308594 26.484375 367.320312 34.492188 367.320312 44.375 L 367.320312 330.625 C 367.320312 340.503906 359.308594 348.515625 349.429688 348.515625 L 134.742188 348.515625 C 124.859375 348.515625 116.851562 340.503906 116.851562 330.625 L 116.851562 276.953125 L 152.632812 276.953125 L 152.632812 312.734375 L 331.539062 312.734375 L 331.539062 62.265625 L 152.632812 62.265625 L 152.632812 98.046875 L 116.851562 98.046875 Z M 116.851562 44.375 " fill-opacity="1" fill-rule="evenodd"/></g></svg>