<svg xmlns="http://www.w3.org/2000/svg" xmlns:xlink="http://www.w3.org/1999/xlink" width="500" zoomAndPan="magnify" viewBox="0 0 375 374.999991" height="500" preserveAspectRatio="xMidYMid meet" version="1.0"><defs><clipPath id="1981b1400a"><path d="M 24.339844 11.496094 L 350.589844 11.496094 L 350.589844 366.246094 L 24.339844 366.246094 Z M 24.339844 11.496094 " clip-rule="nonzero"/></clipPath></defs><g clip-path="url(#1981b1400a)"><path fill="#4c5454" d="M 350.632812 334.371094 L 350.632812 330.785156 C 350.632812 308.773438 346.316406 287.40625 337.804688 267.28125 C 329.585938 247.855469 317.828125 230.410156 302.851562 215.433594 C 287.878906 200.457031 270.433594 188.699219 251.003906 180.480469 C 249.726562 179.941406 248.441406 179.417969 247.148438 178.910156 C 249.59375 176.910156 251.949219 174.785156 254.203125 172.53125 C 262.859375 163.875 269.65625 153.785156 274.410156 142.550781 C 279.335938 130.910156 281.832031 118.554688 281.832031 105.828125 C 281.832031 93.101562 279.335938 80.746094 274.410156 69.101562 C 269.660156 57.867188 262.859375 47.78125 254.203125 39.125 C 245.542969 30.46875 235.457031 23.667969 224.222656 18.917969 C 212.582031 13.992188 200.226562 11.496094 187.5 11.496094 C 174.773438 11.496094 162.417969 13.992188 150.777344 18.917969 C 139.539062 23.667969 129.453125 30.46875 120.796875 39.125 C 112.140625 47.78125 105.339844 57.867188 100.589844 69.101562 C 95.664062 80.746094 93.167969 93.101562 93.167969 105.828125 C 93.167969 118.554688 95.664062 130.910156 100.589844 142.550781 C 105.339844 153.785156 112.140625 163.871094 120.796875 172.53125 C 123.050781 174.785156 125.40625 176.910156 127.851562 178.910156 C 126.558594 179.417969 125.269531 179.941406 123.996094 180.480469 C 104.566406 188.699219 87.121094 200.457031 72.148438 215.433594 C 57.171875 230.410156 45.410156 247.855469 37.195312 267.28125 C 28.679688 287.40625 24.367188 308.773438 24.367188 330.785156 L 24.367188 334.371094 C 24.367188 351.113281 37.214844 364.914062 53.574219 366.425781 L 323.644531 366.140625 L 323.742188 366.128906 C 326.550781 365.839844 329.277344 365.007812 331.765625 363.675781 C 342.886719 358.597656 350.632812 347.371094 350.632812 334.371094 Z M 117.972656 135.199219 C 114.039062 125.894531 112.042969 116.015625 112.042969 105.828125 C 112.042969 95.640625 114.039062 85.757812 117.972656 76.457031 C 121.773438 67.472656 127.214844 59.402344 134.144531 52.472656 C 141.074219 45.542969 149.144531 40.101562 158.128906 36.300781 C 167.429688 32.367188 177.3125 30.371094 187.5 30.371094 C 197.6875 30.371094 207.566406 32.367188 216.871094 36.300781 C 225.855469 40.101562 233.925781 45.542969 240.855469 52.472656 C 247.785156 59.402344 253.226562 67.472656 257.027344 76.457031 C 260.960938 85.757812 262.957031 95.640625 262.957031 105.828125 C 262.957031 116.015625 260.960938 125.894531 257.027344 135.199219 C 253.226562 144.183594 247.785156 152.253906 240.855469 159.183594 C 233.925781 166.113281 225.855469 171.554688 216.871094 175.351562 C 207.566406 179.289062 197.6875 181.285156 187.5 181.285156 C 177.3125 181.285156 167.429688 179.289062 158.128906 175.351562 C 149.144531 171.554688 141.074219 166.113281 134.144531 159.183594 C 127.214844 152.253906 121.773438 144.183594 117.972656 135.199219 Z M 331.757812 334.371094 C 331.757812 341.714844 325.785156 347.6875 318.441406 347.6875 L 56.558594 347.6875 C 49.214844 347.6875 43.242188 341.714844 43.242188 334.371094 L 43.242188 330.785156 C 43.242188 311.3125 47.054688 292.421875 54.578125 274.632812 C 61.84375 257.457031 72.246094 242.027344 85.492188 228.78125 C 98.738281 215.53125 114.167969 205.128906 131.347656 197.863281 C 135.132812 196.261719 139.023438 194.8125 142.910156 193.546875 C 144.265625 193.105469 145.644531 192.679688 147.007812 192.28125 C 147.515625 192.132812 148 191.941406 148.460938 191.71875 C 149.230469 192.070312 149.996094 192.410156 150.773438 192.738281 C 162.417969 197.664062 174.773438 200.160156 187.5 200.160156 C 200.222656 200.160156 212.582031 197.660156 224.222656 192.738281 C 225 192.410156 225.769531 192.070312 226.535156 191.71875 C 226.996094 191.941406 227.480469 192.132812 227.988281 192.28125 C 233.273438 193.824219 238.542969 195.703125 243.652344 197.863281 C 260.832031 205.132812 276.257812 215.53125 289.503906 228.78125 C 302.753906 242.027344 313.15625 257.457031 320.421875 274.632812 C 327.941406 292.417969 331.757812 311.3125 331.757812 330.785156 Z M 331.757812 334.371094 " fill-opacity="1" fill-rule="nonzero"/></g></svg>