<svg xmlns="http://www.w3.org/2000/svg" xmlns:xlink="http://www.w3.org/1999/xlink" width="500" zoomAndPan="magnify" viewBox="0 0 375 374.999991" height="500" preserveAspectRatio="xMidYMid meet" version="1.0"><path fill="#4c5454" d="M 222.59375 365.039062 L 155.238281 365.039062 C 154.671875 365.066406 154.109375 365.066406 153.546875 365.039062 C 152.984375 365.007812 152.421875 364.953125 151.863281 364.871094 C 151.304688 364.785156 150.753906 364.675781 150.207031 364.539062 C 149.660156 364.402344 149.117188 364.238281 148.585938 364.046875 C 148.054688 363.859375 147.535156 363.644531 147.023438 363.402344 C 146.515625 363.160156 146.019531 362.894531 145.535156 362.605469 C 145.050781 362.316406 144.582031 362.003906 144.125 361.667969 C 143.671875 361.332031 143.238281 360.976562 142.816406 360.597656 C 142.398438 360.21875 142 359.824219 141.621094 359.40625 C 141.238281 358.988281 140.878906 358.554688 140.542969 358.101562 C 140.207031 357.648438 139.890625 357.179688 139.601562 356.699219 C 139.308594 356.214844 139.039062 355.71875 138.796875 355.210938 C 138.554688 354.699219 138.335938 354.179688 138.144531 353.648438 C 137.953125 353.121094 137.785156 352.582031 137.648438 352.035156 C 137.507812 351.488281 137.394531 350.933594 137.308594 350.378906 C 137.222656 349.820312 137.164062 349.257812 137.132812 348.695312 L 131.042969 311.195312 C 123.375 308.054688 116.214844 304.007812 109.574219 299.050781 L 71.960938 314.710938 C 69.988281 315.585938 67.921875 316.0625 65.765625 316.140625 C 63.609375 316.222656 61.515625 315.898438 59.484375 315.171875 C 57.332031 314.480469 55.390625 313.402344 53.660156 311.945312 C 51.929688 310.488281 50.539062 308.753906 49.488281 306.75 L 16.078125 248.757812 C 15.53125 247.839844 15.070312 246.875 14.699219 245.871094 C 14.328125 244.863281 14.054688 243.832031 13.875 242.777344 C 13.691406 241.71875 13.609375 240.65625 13.625 239.585938 C 13.640625 238.511719 13.753906 237.453125 13.960938 236.402344 C 14.171875 235.351562 14.476562 234.328125 14.875 233.332031 C 15.273438 232.335938 15.757812 231.386719 16.332031 230.480469 C 16.90625 229.574219 17.558594 228.730469 18.285156 227.945312 C 19.015625 227.160156 19.808594 226.445312 20.667969 225.804688 L 50.96875 201.558594 C 50.414062 197.453125 50.1875 193.332031 50.285156 189.195312 C 50.367188 186 50.707031 182.835938 51.304688 179.699219 L 51.691406 177.382812 L 20.09375 152.171875 C 19.023438 151.316406 18.1875 150.265625 17.597656 149.027344 C 16.679688 147.648438 15.941406 146.179688 15.382812 144.621094 C 14.828125 143.058594 14.46875 141.457031 14.308594 139.808594 C 14.148438 138.160156 14.1875 136.519531 14.429688 134.878906 C 14.671875 133.242188 15.113281 131.65625 15.746094 130.128906 L 49.691406 69.46875 C 50.121094 68.734375 50.632812 68.0625 51.230469 67.453125 C 51.828125 66.664062 52.492188 65.929688 53.214844 65.25 C 53.941406 64.574219 54.71875 63.960938 55.546875 63.417969 C 56.375 62.871094 57.242188 62.402344 58.152344 62.003906 C 59.0625 61.605469 59.996094 61.289062 60.960938 61.050781 C 61.921875 60.8125 62.898438 60.65625 63.886719 60.585938 C 64.875 60.511719 65.863281 60.523438 66.851562 60.621094 C 67.839844 60.714844 68.8125 60.894531 69.769531 61.15625 C 70.726562 61.417969 71.652344 61.757812 72.550781 62.175781 L 109.574219 77.597656 C 115.421875 73.46875 121.605469 69.933594 127.214844 66.75 L 130.675781 64.769531 L 135.429688 28.488281 C 135.574219 27.460938 135.878906 26.476562 136.339844 25.546875 C 137.085938 23.851562 138.046875 22.289062 139.214844 20.855469 C 140.386719 19.421875 141.726562 18.167969 143.234375 17.09375 C 144.742188 16.019531 146.367188 15.164062 148.105469 14.53125 C 149.84375 13.894531 151.632812 13.5 153.480469 13.347656 L 220.820312 13.347656 C 221.382812 13.320312 221.945312 13.320312 222.511719 13.351562 C 223.074219 13.378906 223.636719 13.433594 224.195312 13.515625 C 224.75 13.601562 225.304688 13.710938 225.851562 13.847656 C 226.398438 13.984375 226.941406 14.148438 227.472656 14.339844 C 228.003906 14.527344 228.523438 14.742188 229.035156 14.984375 C 229.546875 15.226562 230.042969 15.492188 230.527344 15.78125 C 231.011719 16.070312 231.480469 16.382812 231.933594 16.71875 C 232.390625 17.054688 232.824219 17.410156 233.246094 17.789062 C 233.664062 18.164062 234.0625 18.5625 234.445312 18.980469 C 234.824219 19.398438 235.183594 19.832031 235.523438 20.285156 C 235.859375 20.738281 236.175781 21.203125 236.464844 21.6875 C 236.757812 22.171875 237.027344 22.667969 237.269531 23.175781 C 237.515625 23.6875 237.730469 24.207031 237.925781 24.734375 C 238.117188 25.265625 238.285156 25.804688 238.425781 26.351562 C 238.566406 26.898438 238.675781 27.453125 238.765625 28.007812 C 238.851562 28.566406 238.910156 29.128906 238.941406 29.691406 L 245.03125 67.191406 C 252.695312 70.339844 259.855469 74.386719 266.5 79.335938 L 304.09375 63.675781 C 306.070312 62.8125 308.136719 62.339844 310.289062 62.261719 C 312.445312 62.179688 314.539062 62.5 316.570312 63.214844 C 318.726562 63.90625 320.667969 64.980469 322.398438 66.4375 C 324.128906 67.898438 325.519531 69.628906 326.566406 71.636719 L 359.921875 129.628906 C 360.46875 130.550781 360.929688 131.511719 361.300781 132.519531 C 361.671875 133.523438 361.945312 134.554688 362.125 135.609375 C 362.308594 136.667969 362.390625 137.730469 362.375 138.804688 C 362.359375 139.875 362.25 140.9375 362.039062 141.988281 C 361.828125 143.039062 361.523438 144.058594 361.125 145.054688 C 360.726562 146.050781 360.242188 147 359.667969 147.90625 C 359.09375 148.8125 358.445312 149.65625 357.714844 150.441406 C 356.984375 151.226562 356.191406 151.941406 355.332031 152.582031 L 325.011719 176.828125 C 325.566406 180.933594 325.796875 185.054688 325.695312 189.195312 C 325.621094 192.386719 325.289062 195.550781 324.699219 198.6875 C 324.566406 199.410156 324.4375 200.132812 324.328125 200.855469 L 357.570312 226.214844 C 358.414062 226.824219 359.195312 227.507812 359.910156 228.261719 C 360.625 229.019531 361.265625 229.832031 361.828125 230.710938 C 362.390625 231.585938 362.867188 232.503906 363.257812 233.46875 C 363.648438 234.433594 363.945312 235.429688 364.148438 236.449219 C 364.351562 237.46875 364.460938 238.5 364.472656 239.539062 C 364.480469 240.582031 364.398438 241.613281 364.214844 242.640625 C 364.03125 243.664062 363.753906 244.664062 363.386719 245.636719 C 363.015625 246.609375 362.558594 247.539062 362.015625 248.425781 L 328.085938 307.234375 C 327.03125 309.128906 325.660156 310.765625 323.980469 312.136719 C 322.296875 313.511719 320.417969 314.523438 318.347656 315.171875 C 316.226562 315.90625 314.042969 316.210938 311.800781 316.085938 C 309.554688 315.960938 307.421875 315.417969 305.390625 314.453125 L 267.835938 298.8125 L 264.761719 300.828125 C 259.097656 304.730469 253.15625 308.152344 246.9375 311.082031 L 240.605469 350.230469 C 240.4375 351.167969 240.148438 352.0625 239.734375 352.914062 C 238.980469 354.601562 238.015625 356.15625 236.839844 357.582031 C 235.667969 359.003906 234.328125 360.25 232.820312 361.316406 C 231.3125 362.382812 229.691406 363.234375 227.957031 363.863281 C 226.222656 364.496094 224.433594 364.886719 222.59375 365.039062 Z M 155.402344 346.53125 L 222.429688 346.53125 C 222.039062 346.53125 222.226562 346.121094 222.578125 345.585938 L 229.390625 303.011719 C 229.523438 302.175781 229.769531 301.375 230.121094 300.605469 C 230.476562 299.839844 230.929688 299.132812 231.476562 298.488281 C 232.023438 297.84375 232.648438 297.285156 233.351562 296.8125 C 234.054688 296.335938 234.804688 295.96875 235.609375 295.699219 C 242.347656 293.058594 248.660156 289.625 254.542969 285.410156 C 257.097656 283.742188 259.617188 282.097656 262.152344 280.578125 C 263.410156 279.824219 264.769531 279.390625 266.234375 279.285156 C 267.699219 279.175781 269.109375 279.40625 270.460938 279.96875 L 313.035156 297.699219 L 345.503906 240.058594 L 309.148438 212.515625 C 307.984375 211.640625 307.074219 210.554688 306.425781 209.25 C 305.773438 207.949219 305.445312 206.570312 305.445312 205.113281 C 305.53125 201.917969 305.867188 198.753906 306.464844 195.617188 C 306.898438 193.484375 307.152344 191.332031 307.222656 189.15625 C 307.480469 184.769531 307.050781 180.449219 305.929688 176.199219 C 305.628906 175.300781 305.472656 174.378906 305.457031 173.433594 C 305.441406 172.488281 305.566406 171.5625 305.835938 170.65625 C 306.105469 169.75 306.5 168.90625 307.027344 168.121094 C 307.554688 167.335938 308.1875 166.648438 308.925781 166.054688 L 343.394531 138.476562 L 310.257812 80.390625 L 268.6875 98.492188 C 267.917969 98.8125 267.125 99.027344 266.300781 99.132812 C 265.476562 99.238281 264.652344 99.234375 263.832031 99.117188 C 263.007812 99.003906 262.21875 98.78125 261.453125 98.453125 C 260.691406 98.121094 259.988281 97.699219 259.339844 97.179688 C 251.722656 90.800781 243.222656 85.996094 233.832031 82.761719 C 233.027344 82.492188 232.277344 82.125 231.574219 81.652344 C 230.871094 81.175781 230.246094 80.617188 229.699219 79.972656 C 229.152344 79.328125 228.699219 78.621094 228.34375 77.855469 C 227.992188 77.085938 227.746094 76.285156 227.613281 75.449219 L 220.652344 31.859375 L 153.664062 31.859375 C 153.996094 31.859375 153.847656 32.226562 153.554688 32.691406 L 148.480469 71.5625 C 148.300781 72.964844 147.824219 74.257812 147.054688 75.445312 C 146.28125 76.628906 145.289062 77.585938 144.074219 78.316406 C 141.632812 79.78125 139.039062 81.242188 136.414062 82.742188 C 129.527344 86.4375 122.960938 90.632812 116.71875 95.328125 C 116.074219 95.839844 115.375 96.257812 114.621094 96.582031 C 113.867188 96.90625 113.082031 97.125 112.269531 97.238281 C 111.453125 97.355469 110.640625 97.363281 109.824219 97.261719 C 109.011719 97.160156 108.222656 96.953125 107.460938 96.644531 L 65.609375 79.335938 L 65.113281 79.742188 L 32.460938 138.289062 L 67.109375 166.054688 C 68.203125 166.933594 69.054688 168.007812 69.664062 169.273438 C 70.269531 170.539062 70.570312 171.871094 70.570312 173.273438 C 70.5 176.46875 70.160156 179.632812 69.554688 182.769531 C 68.304688 189.308594 68.488281 195.804688 70.109375 202.261719 C 70.40625 203.160156 70.5625 204.082031 70.582031 205.027344 C 70.597656 205.972656 70.46875 206.898438 70.203125 207.804688 C 69.933594 208.710938 69.535156 209.558594 69.007812 210.339844 C 68.480469 211.125 67.847656 211.8125 67.109375 212.40625 L 32.625 239.984375 L 65.796875 297.996094 L 107.371094 279.894531 C 108.132812 279.585938 108.917969 279.386719 109.734375 279.289062 C 110.546875 279.1875 111.359375 279.199219 112.171875 279.3125 C 112.984375 279.429688 113.769531 279.648438 114.523438 279.96875 C 115.277344 280.289062 115.980469 280.703125 116.625 281.207031 C 124.242188 287.578125 132.746094 292.382812 142.132812 295.625 C 142.933594 295.894531 143.6875 296.261719 144.390625 296.738281 C 145.089844 297.210938 145.714844 297.769531 146.265625 298.414062 C 146.8125 299.058594 147.261719 299.765625 147.617188 300.53125 C 147.972656 301.300781 148.21875 302.101562 148.351562 302.9375 Z M 346.464844 240.835938 C 346.863281 241.257812 347.316406 241.597656 347.835938 241.855469 Z M 346.464844 240.835938 " fill-opacity="1" fill-rule="nonzero"/><path fill="#4c5454" d="M 188.925781 273.285156 C 187.550781 273.285156 186.175781 273.25 184.800781 273.183594 C 183.425781 273.117188 182.054688 273.015625 180.683594 272.878906 C 179.3125 272.746094 177.949219 272.578125 176.585938 272.375 C 175.226562 272.171875 173.871094 271.9375 172.519531 271.667969 C 171.171875 271.402344 169.828125 271.097656 168.492188 270.765625 C 167.15625 270.429688 165.832031 270.0625 164.515625 269.664062 C 163.199219 269.265625 161.890625 268.832031 160.597656 268.371094 C 159.300781 267.90625 158.015625 267.410156 156.746094 266.882812 C 155.472656 266.355469 154.214844 265.800781 152.972656 265.210938 C 151.726562 264.621094 150.5 264.003906 149.285156 263.355469 C 148.070312 262.707031 146.875 262.027344 145.695312 261.320312 C 144.511719 260.613281 143.351562 259.878906 142.207031 259.113281 C 141.0625 258.347656 139.9375 257.554688 138.832031 256.738281 C 137.726562 255.917969 136.640625 255.070312 135.578125 254.195312 C 134.515625 253.324219 133.472656 252.425781 132.453125 251.5 C 131.433594 250.578125 130.4375 249.628906 129.464844 248.65625 C 128.492188 247.683594 127.542969 246.6875 126.617188 245.664062 C 125.695312 244.644531 124.796875 243.605469 123.921875 242.539062 C 123.050781 241.476562 122.203125 240.390625 121.382812 239.285156 C 120.5625 238.179688 119.769531 237.054688 119.007812 235.914062 C 118.242188 234.769531 117.503906 233.605469 116.796875 232.425781 C 116.089844 231.246094 115.414062 230.046875 114.761719 228.835938 C 114.113281 227.621094 113.496094 226.390625 112.90625 225.148438 C 112.320312 223.902344 111.761719 222.644531 111.234375 221.375 C 110.707031 220.101562 110.214844 218.820312 109.75 217.523438 C 109.285156 216.226562 108.855469 214.921875 108.457031 213.605469 C 108.054688 212.285156 107.6875 210.960938 107.355469 209.625 C 107.019531 208.292969 106.71875 206.949219 106.449219 205.597656 C 106.179688 204.25 105.945312 202.894531 105.746094 201.53125 C 105.542969 200.171875 105.375 198.804688 105.238281 197.4375 C 105.105469 196.066406 105.003906 194.695312 104.933594 193.320312 C 104.867188 191.945312 104.835938 190.570312 104.835938 189.195312 C 104.835938 187.816406 104.867188 186.441406 104.933594 185.066406 C 105.003906 183.691406 105.105469 182.320312 105.238281 180.953125 C 105.375 179.582031 105.542969 178.214844 105.746094 176.855469 C 105.945312 175.492188 106.179688 174.136719 106.449219 172.789062 C 106.71875 171.4375 107.019531 170.097656 107.355469 168.761719 C 107.6875 167.425781 108.054688 166.101562 108.457031 164.78125 C 108.855469 163.464844 109.285156 162.160156 109.75 160.863281 C 110.214844 159.566406 110.707031 158.285156 111.234375 157.011719 C 111.761719 155.742188 112.320312 154.484375 112.90625 153.238281 C 113.496094 151.996094 114.113281 150.765625 114.761719 149.554688 C 115.414062 148.339844 116.089844 147.140625 116.796875 145.960938 C 117.503906 144.78125 118.242188 143.617188 119.007812 142.476562 C 119.769531 141.332031 120.5625 140.207031 121.382812 139.101562 C 122.203125 137.996094 123.050781 136.910156 123.921875 135.847656 C 124.796875 134.78125 125.695312 133.742188 126.617188 132.722656 C 127.542969 131.703125 128.492188 130.703125 129.464844 129.730469 C 130.4375 128.757812 131.433594 127.808594 132.453125 126.886719 C 133.472656 125.960938 134.515625 125.0625 135.578125 124.191406 C 136.640625 123.316406 137.726562 122.46875 138.832031 121.652344 C 139.9375 120.832031 141.0625 120.039062 142.207031 119.273438 C 143.351562 118.507812 144.511719 117.773438 145.695312 117.066406 C 146.875 116.359375 148.070312 115.679688 149.285156 115.03125 C 150.5 114.382812 151.726562 113.765625 152.972656 113.175781 C 154.214844 112.585938 155.472656 112.03125 156.746094 111.503906 C 158.015625 110.976562 159.300781 110.480469 160.597656 110.019531 C 161.890625 109.554688 163.199219 109.121094 164.515625 108.722656 C 165.832031 108.324219 167.15625 107.957031 168.492188 107.621094 C 169.828125 107.289062 171.171875 106.988281 172.519531 106.71875 C 173.871094 106.449219 175.226562 106.214844 176.585938 106.011719 C 177.949219 105.808594 179.3125 105.640625 180.683594 105.507812 C 182.054688 105.371094 183.425781 105.269531 184.800781 105.203125 C 186.175781 105.136719 187.550781 105.101562 188.925781 105.101562 C 190.300781 105.101562 191.675781 105.136719 193.050781 105.203125 C 194.425781 105.269531 195.796875 105.371094 197.167969 105.507812 C 198.539062 105.640625 199.902344 105.808594 201.265625 106.011719 C 202.625 106.214844 203.980469 106.449219 205.332031 106.71875 C 206.679688 106.988281 208.023438 107.289062 209.359375 107.621094 C 210.691406 107.957031 212.019531 108.324219 213.335938 108.722656 C 214.652344 109.121094 215.960938 109.554688 217.253906 110.019531 C 218.550781 110.480469 219.835938 110.976562 221.105469 111.503906 C 222.378906 112.03125 223.636719 112.585938 224.878906 113.175781 C 226.125 113.765625 227.351562 114.382812 228.566406 115.03125 C 229.78125 115.679688 230.976562 116.359375 232.15625 117.066406 C 233.335938 117.773438 234.5 118.507812 235.644531 119.273438 C 236.789062 120.039062 237.914062 120.832031 239.019531 121.652344 C 240.125 122.46875 241.207031 123.316406 242.273438 124.191406 C 243.335938 125.0625 244.378906 125.960938 245.398438 126.886719 C 246.417969 127.808594 247.414062 128.757812 248.386719 129.730469 C 249.359375 130.703125 250.308594 131.703125 251.234375 132.722656 C 252.15625 133.742188 253.054688 134.78125 253.929688 135.847656 C 254.800781 136.910156 255.648438 137.996094 256.46875 139.101562 C 257.289062 140.207031 258.082031 141.332031 258.84375 142.476562 C 259.609375 143.617188 260.347656 144.78125 261.054688 145.960938 C 261.761719 147.140625 262.4375 148.339844 263.085938 149.554688 C 263.738281 150.765625 264.355469 151.996094 264.945312 153.238281 C 265.53125 154.484375 266.089844 155.742188 266.617188 157.011719 C 267.144531 158.285156 267.636719 159.566406 268.101562 160.863281 C 268.566406 162.160156 268.996094 163.464844 269.394531 164.78125 C 269.796875 166.101562 270.164062 167.425781 270.496094 168.761719 C 270.832031 170.097656 271.132812 171.4375 271.402344 172.789062 C 271.667969 174.136719 271.90625 175.492188 272.105469 176.855469 C 272.308594 178.214844 272.476562 179.582031 272.613281 180.953125 C 272.746094 182.320312 272.847656 183.691406 272.914062 185.066406 C 272.984375 186.441406 273.015625 187.816406 273.015625 189.195312 C 273.015625 190.570312 272.980469 191.945312 272.910156 193.320312 C 272.84375 194.691406 272.738281 196.0625 272.605469 197.433594 C 272.46875 198.800781 272.296875 200.167969 272.09375 201.527344 C 271.890625 202.886719 271.65625 204.242188 271.386719 205.59375 C 271.117188 206.941406 270.8125 208.285156 270.480469 209.617188 C 270.144531 210.953125 269.777344 212.277344 269.375 213.59375 C 268.976562 214.910156 268.542969 216.214844 268.078125 217.511719 C 267.613281 218.804688 267.117188 220.089844 266.589844 221.359375 C 266.0625 222.628906 265.507812 223.886719 264.917969 225.132812 C 264.328125 226.375 263.710938 227.601562 263.058594 228.816406 C 262.410156 230.027344 261.734375 231.226562 261.023438 232.40625 C 260.316406 233.585938 259.582031 234.746094 258.816406 235.890625 C 258.050781 237.035156 257.261719 238.160156 256.441406 239.261719 C 255.621094 240.367188 254.773438 241.453125 253.902344 242.515625 C 253.027344 243.578125 252.128906 244.621094 251.207031 245.640625 C 250.28125 246.660156 249.332031 247.65625 248.359375 248.628906 C 247.386719 249.601562 246.390625 250.550781 245.371094 251.472656 C 244.351562 252.398438 243.3125 253.296875 242.246094 254.167969 C 241.183594 255.042969 240.101562 255.886719 238.996094 256.707031 C 237.890625 257.527344 236.765625 258.320312 235.621094 259.085938 C 234.480469 259.847656 233.316406 260.585938 232.136719 261.292969 C 230.957031 262 229.761719 262.679688 228.546875 263.328125 C 227.335938 263.976562 226.105469 264.597656 224.863281 265.183594 C 223.621094 265.773438 222.363281 266.332031 221.089844 266.859375 C 219.820312 267.386719 218.539062 267.882812 217.242188 268.347656 C 215.949219 268.8125 214.640625 269.242188 213.324219 269.644531 C 212.007812 270.042969 210.683594 270.410156 209.351562 270.746094 C 208.015625 271.082031 206.675781 271.382812 205.324219 271.652344 C 203.976562 271.921875 202.621094 272.160156 201.261719 272.363281 C 199.898438 272.566406 198.535156 272.734375 197.164062 272.871094 C 195.796875 273.007812 194.425781 273.109375 193.050781 273.179688 C 191.675781 273.25 190.300781 273.285156 188.925781 273.285156 Z M 188.925781 123.613281 C 187.851562 123.613281 186.78125 123.636719 185.707031 123.691406 C 184.636719 123.742188 183.566406 123.824219 182.496094 123.929688 C 181.429688 124.03125 180.363281 124.164062 179.304688 124.320312 C 178.242188 124.480469 177.183594 124.664062 176.132812 124.871094 C 175.078125 125.082031 174.03125 125.316406 172.992188 125.578125 C 171.949219 125.839844 170.914062 126.125 169.886719 126.4375 C 168.859375 126.746094 167.84375 127.085938 166.832031 127.445312 C 165.820312 127.808594 164.820312 128.195312 163.828125 128.605469 C 162.835938 129.015625 161.855469 129.449219 160.886719 129.910156 C 159.914062 130.367188 158.957031 130.851562 158.011719 131.355469 C 157.0625 131.863281 156.128906 132.390625 155.210938 132.941406 C 154.289062 133.496094 153.382812 134.066406 152.492188 134.664062 C 151.597656 135.261719 150.722656 135.878906 149.859375 136.519531 C 148.996094 137.15625 148.152344 137.816406 147.320312 138.5 C 146.492188 139.179688 145.679688 139.878906 144.882812 140.601562 C 144.089844 141.320312 143.3125 142.0625 142.550781 142.820312 C 141.792969 143.578125 141.054688 144.355469 140.332031 145.152344 C 139.613281 145.945312 138.910156 146.757812 138.230469 147.589844 C 137.550781 148.417969 136.890625 149.265625 136.25 150.125 C 135.609375 150.988281 134.992188 151.867188 134.398438 152.757812 C 133.800781 153.652344 133.226562 154.558594 132.675781 155.476562 C 132.121094 156.398438 131.59375 157.332031 131.089844 158.277344 C 130.582031 159.226562 130.101562 160.183594 129.640625 161.152344 C 129.183594 162.125 128.746094 163.105469 128.335938 164.097656 C 127.925781 165.089844 127.539062 166.089844 127.179688 167.101562 C 126.816406 168.109375 126.480469 169.128906 126.167969 170.15625 C 125.855469 171.183594 125.570312 172.21875 125.308594 173.257812 C 125.050781 174.300781 124.8125 175.347656 124.605469 176.398438 C 124.394531 177.453125 124.210938 178.507812 124.054688 179.570312 C 123.898438 180.632812 123.765625 181.699219 123.660156 182.765625 C 123.554688 183.832031 123.476562 184.902344 123.421875 185.976562 C 123.371094 187.046875 123.34375 188.121094 123.34375 189.195312 C 123.34375 190.265625 123.371094 191.339844 123.421875 192.410156 C 123.476562 193.484375 123.554688 194.554688 123.660156 195.621094 C 123.765625 196.691406 123.898438 197.753906 124.054688 198.816406 C 124.210938 199.878906 124.394531 200.933594 124.605469 201.988281 C 124.8125 203.039062 125.050781 204.085938 125.308594 205.128906 C 125.570312 206.167969 125.855469 207.203125 126.167969 208.230469 C 126.480469 209.257812 126.816406 210.277344 127.179688 211.289062 C 127.539062 212.296875 127.925781 213.300781 128.335938 214.289062 C 128.746094 215.28125 129.183594 216.261719 129.640625 217.234375 C 130.101562 218.203125 130.582031 219.160156 131.089844 220.109375 C 131.59375 221.054688 132.121094 221.988281 132.675781 222.910156 C 133.226562 223.828125 133.800781 224.734375 134.398438 225.628906 C 134.992188 226.519531 135.609375 227.398438 136.25 228.261719 C 136.890625 229.121094 137.550781 229.96875 138.230469 230.796875 C 138.910156 231.628906 139.613281 232.441406 140.332031 233.234375 C 141.054688 234.03125 141.792969 234.808594 142.550781 235.566406 C 143.3125 236.324219 144.089844 237.066406 144.882812 237.785156 C 145.679688 238.507812 146.492188 239.207031 147.320312 239.890625 C 148.152344 240.570312 148.996094 241.230469 149.859375 241.867188 C 150.722656 242.507812 151.597656 243.125 152.492188 243.722656 C 153.382812 244.320312 154.289062 244.894531 155.210938 245.445312 C 156.128906 245.996094 157.0625 246.523438 158.011719 247.03125 C 158.957031 247.539062 159.914062 248.019531 160.886719 248.476562 C 161.855469 248.9375 162.835938 249.371094 163.828125 249.78125 C 164.820312 250.195312 165.820312 250.578125 166.832031 250.941406 C 167.84375 251.304688 168.859375 251.640625 169.886719 251.949219 C 170.914062 252.261719 171.949219 252.546875 172.992188 252.808594 C 174.03125 253.070312 175.078125 253.304688 176.132812 253.515625 C 177.183594 253.722656 178.242188 253.90625 179.304688 254.066406 C 180.363281 254.222656 181.429688 254.355469 182.496094 254.460938 C 183.566406 254.5625 184.636719 254.644531 185.707031 254.695312 C 186.78125 254.75 187.851562 254.773438 188.925781 254.773438 C 190 254.773438 191.070312 254.75 192.144531 254.695312 C 193.214844 254.644531 194.285156 254.5625 195.355469 254.460938 C 196.421875 254.355469 197.488281 254.222656 198.546875 254.066406 C 199.609375 253.90625 200.667969 253.722656 201.71875 253.515625 C 202.773438 253.304688 203.820312 253.070312 204.859375 252.808594 C 205.902344 252.546875 206.9375 252.261719 207.964844 251.949219 C 208.988281 251.640625 210.007812 251.304688 211.019531 250.941406 C 212.03125 250.578125 213.03125 250.195312 214.023438 249.78125 C 215.015625 249.371094 215.996094 248.9375 216.964844 248.476562 C 217.933594 248.019531 218.894531 247.539062 219.839844 247.03125 C 220.785156 246.523438 221.71875 245.996094 222.640625 245.445312 C 223.5625 244.894531 224.46875 244.320312 225.359375 243.722656 C 226.253906 243.125 227.128906 242.507812 227.992188 241.867188 C 228.855469 241.230469 229.699219 240.570312 230.53125 239.890625 C 231.359375 239.207031 232.171875 238.507812 232.96875 237.785156 C 233.761719 237.066406 234.539062 236.324219 235.296875 235.566406 C 236.058594 234.808594 236.796875 234.03125 237.519531 233.234375 C 238.238281 232.441406 238.941406 231.628906 239.621094 230.796875 C 240.300781 229.96875 240.960938 229.121094 241.601562 228.261719 C 242.242188 227.398438 242.859375 226.519531 243.453125 225.628906 C 244.050781 224.734375 244.625 223.828125 245.175781 222.910156 C 245.726562 221.988281 246.257812 221.054688 246.761719 220.109375 C 247.269531 219.160156 247.75 218.203125 248.210938 217.234375 C 248.667969 216.261719 249.105469 215.28125 249.515625 214.289062 C 249.925781 213.300781 250.3125 212.296875 250.671875 211.289062 C 251.035156 210.277344 251.371094 209.257812 251.683594 208.230469 C 251.996094 207.203125 252.28125 206.167969 252.542969 205.128906 C 252.800781 204.085938 253.039062 203.039062 253.246094 201.988281 C 253.457031 200.933594 253.640625 199.878906 253.796875 198.816406 C 253.953125 197.753906 254.085938 196.691406 254.191406 195.621094 C 254.296875 194.554688 254.375 193.484375 254.429688 192.410156 C 254.480469 191.339844 254.507812 190.265625 254.507812 189.195312 C 254.503906 188.121094 254.476562 187.046875 254.425781 185.976562 C 254.371094 184.90625 254.289062 183.835938 254.183594 182.769531 C 254.078125 181.699219 253.945312 180.636719 253.789062 179.574219 C 253.628906 178.511719 253.445312 177.457031 253.234375 176.40625 C 253.023438 175.351562 252.789062 174.304688 252.527344 173.265625 C 252.265625 172.226562 251.980469 171.191406 251.667969 170.164062 C 251.355469 169.136719 251.015625 168.121094 250.65625 167.109375 C 250.292969 166.101562 249.90625 165.097656 249.496094 164.109375 C 249.085938 163.117188 248.648438 162.136719 248.191406 161.167969 C 247.730469 160.199219 247.246094 159.238281 246.742188 158.292969 C 246.234375 157.347656 245.707031 156.414062 245.15625 155.492188 C 244.601562 154.574219 244.027344 153.667969 243.433594 152.777344 C 242.835938 151.882812 242.21875 151.007812 241.578125 150.144531 C 240.9375 149.285156 240.277344 148.4375 239.597656 147.609375 C 238.917969 146.78125 238.214844 145.96875 237.496094 145.171875 C 236.777344 144.378906 236.035156 143.601562 235.277344 142.84375 C 234.519531 142.082031 233.742188 141.34375 232.945312 140.625 C 232.152344 139.902344 231.339844 139.203125 230.511719 138.519531 C 229.679688 137.839844 228.835938 137.179688 227.972656 136.539062 C 227.113281 135.902344 226.234375 135.285156 225.34375 134.6875 C 224.453125 134.089844 223.546875 133.515625 222.625 132.964844 C 221.703125 132.414062 220.773438 131.882812 219.824219 131.378906 C 218.878906 130.871094 217.921875 130.390625 216.953125 129.929688 C 215.984375 129.46875 215.003906 129.035156 214.011719 128.625 C 213.019531 128.214844 212.019531 127.828125 211.007812 127.464844 C 210 127.101562 208.980469 126.765625 207.953125 126.453125 C 206.929688 126.140625 205.894531 125.855469 204.855469 125.59375 C 203.8125 125.332031 202.765625 125.09375 201.714844 124.882812 C 200.664062 124.675781 199.605469 124.488281 198.542969 124.332031 C 197.484375 124.171875 196.417969 124.039062 195.351562 123.933594 C 194.285156 123.828125 193.214844 123.75 192.140625 123.695312 C 191.070312 123.640625 190 123.613281 188.925781 123.613281 Z M 188.925781 123.613281 " fill-opacity="1" fill-rule="nonzero"/></svg>